<?xml version="1.0" encoding="iso-8859-1"?>
<!-- Generator: Adobe Illustrator 19.0.0, SVG Export Plug-In . SVG Version: 6.00 Build 0)  -->
<svg version="1.1" id="Capa_1" xmlns="http://www.w3.org/2000/svg" xmlns:xlink="http://www.w3.org/1999/xlink" x="0px" y="0px"
	 viewBox="0 0 490 490" style="enable-background:new 0 0 490 490;" xml:space="preserve">
<g>
	<circle fill="#7727d8" cx="339.672" cy="175.368" r="42.642"/>
	<path fill="#7727d8" d="M119.39,339.701l18.333,24.539c4.396-3.275,108.713-79,214.569,0l18.303-24.554
		C246.211,246.899,120.646,338.774,119.39,339.701z"/>
	<path fill="#7727d8" d="M420.914,0H69.086C30.999,0,0,30.999,0,69.086v351.829C0,459.001,30.999,490,69.086,490h351.829
		C459.001,490,490,459.001,490,420.914V69.086C490,30.999,459.001,0,420.914,0z M69.086,30.625h237.879
		c-17.194,20.969-42.408,48.038-75.44,74.79c-9.495-12.997-26.387-19.487-42.678-14.753l-69.644,20.242
		c-20.778,6.039-32.837,27.98-26.798,48.758l6.486,22.315c-21.277,7.944-44.134,14.363-68.266,19.149V69.086
		C30.625,47.882,47.881,30.625,69.086,30.625z M459.375,420.914c0,21.204-17.257,38.461-38.461,38.461H69.086
		c-21.204,0-38.461-17.257-38.461-38.461V232.453c27.373-4.969,53.019-12.011,76.921-20.696l3.799,13.071
		c6.039,20.778,27.98,32.837,48.758,26.799l69.643-20.242c20.778-6.039,32.837-27.98,26.799-48.758l-13.435-46.225
		c50.696-39.538,84.942-80.939,102.996-105.777h74.808c21.204,0,38.461,17.257,38.461,38.461V420.914z"/>
</g>
<g>
</g>
<g>
</g>
<g>
</g>
<g>
</g>
<g>
</g>
<g>
</g>
<g>
</g>
<g>
</g>
<g>
</g>
<g>
</g>
<g>
</g>
<g>
</g>
<g>
</g>
<g>
</g>
<g>
</g>
</svg>
